<svg width="680" viewBox="0 0 680 520" xmlns="http://www.w3.org/2000/svg" font-family="'Source Sans Pro', sans-serif">
  <title>Cicle de producció de cada unitat temàtica</title>
  <desc>Diagrama del cicle de 5 etapes de producció, amb iteracions entre les etapes 2-3 i fletxa de consolidació final a GitHub.</desc>
  <defs>
    <marker id="arrow" markerWidth="8" markerHeight="8" refX="7" refY="3.5" orient="auto">
      <polygon points="0 0, 8 3.5, 0 7" fill="#6c757d"/>
    </marker>
  </defs>

  <!-- PDF original (gris) -->
  <rect x="40" y="20" width="320" height="52" rx="6" fill="#f8f9fa" stroke="#adb5bd" stroke-width="0.5"/>
  <text x="200" y="42" text-anchor="middle" font-size="13" font-weight="bold" fill="#343a40" dominant-baseline="central">PDF original</text>
  <text x="200" y="60" text-anchor="middle" font-size="11" fill="#6c757d">Material llegat sense fonts editables</text>

  <!-- Fletxa 0→1 -->
  <line x1="200" y1="72" x2="200" y2="96" stroke="#6c757d" stroke-width="1.5" marker-end="url(#arrow)"/>

  <!-- Etapa 1: Extracció (blau) -->
  <rect x="40" y="98" width="320" height="56" rx="6" fill="#cfe2ff" stroke="#084298" stroke-width="0.5"/>
  <text x="200" y="120" text-anchor="middle" font-size="13" font-weight="bold" fill="#084298" dominant-baseline="central">1 · Extracció i conversió</text>
  <text x="200" y="140" text-anchor="middle" font-size="11" fill="#084298">Claude · secció a secció des del PDF</text>

  <!-- Fletxa 1→2 -->
  <line x1="200" y1="154" x2="200" y2="176" stroke="#6c757d" stroke-width="1.5" marker-end="url(#arrow)"/>

  <!-- Etapa 2: Revisió tècnica (amber) -->
  <rect x="40" y="178" width="320" height="56" rx="6" fill="#fff3cd" stroke="#664d03" stroke-width="0.5"/>
  <text x="200" y="200" text-anchor="middle" font-size="13" font-weight="bold" fill="#664d03" dominant-baseline="central">2 · Revisió tècnica</text>
  <text x="200" y="220" text-anchor="middle" font-size="11" fill="#664d03">Codi RARS · coherència tècnica global</text>

  <!-- Fletxa iteració 2→1 (esquerra) -->
  <path d="M 42 197 L 20 197 L 20 127 L 42 127" fill="none" stroke="#adb5bd" stroke-width="1" stroke-dasharray="4 3" marker-end="url(#arrow)"/>
  <text x="10" y="165" text-anchor="middle" font-size="9" fill="#adb5bd" transform="rotate(-90,10,165)">iteració</text>

  <!-- Fletxa 2→3 -->
  <line x1="200" y1="234" x2="200" y2="256" stroke="#6c757d" stroke-width="1.5" marker-end="url(#arrow)"/>

  <!-- Etapa 3: Revisió lingüística (verd) -->
  <rect x="40" y="258" width="320" height="56" rx="6" fill="#d1e7dd" stroke="#0a3622" stroke-width="0.5"/>
  <text x="200" y="280" text-anchor="middle" font-size="13" font-weight="bold" fill="#0a3622" dominant-baseline="central">3 · Revisió lingüística</text>
  <text x="200" y="300" text-anchor="middle" font-size="11" fill="#0a3622">Lèxic i estil · convencions contrib.qmd</text>

  <!-- Fletxa iteració 3→2 (esquerra) -->
  <path d="M 42 277 L 26 277 L 26 207 L 42 207" fill="none" stroke="#adb5bd" stroke-width="1" stroke-dasharray="4 3" marker-end="url(#arrow)"/>

  <!-- Fletxa 3→4 -->
  <line x1="200" y1="314" x2="200" y2="336" stroke="#6c757d" stroke-width="1.5" marker-end="url(#arrow)"/>

  <!-- Etapa 4: Actualització transversal (gris) -->
  <rect x="40" y="338" width="320" height="56" rx="6" fill="#f8f9fa" stroke="#adb5bd" stroke-width="0.5"/>
  <text x="200" y="360" text-anchor="middle" font-size="13" font-weight="bold" fill="#343a40" dominant-baseline="central">4 · Actualització transversal</text>
  <text x="200" y="378" text-anchor="middle" font-size="11" fill="#6c757d">sigles.qmd · materials afectats</text>

  <!-- Fletxa 4→5 -->
  <line x1="200" y1="394" x2="200" y2="416" stroke="#6c757d" stroke-width="1.5" marker-end="url(#arrow)"/>

  <!-- Etapa 5: Refinament (lila) -->
  <rect x="40" y="418" width="320" height="56" rx="6" fill="#e9d8fd" stroke="#4a1fb8" stroke-width="0.5"/>
  <text x="200" y="440" text-anchor="middle" font-size="13" font-weight="bold" fill="#4a1fb8" dominant-baseline="central">5 · Refinament del coneixement</text>
  <text x="200" y="458" text-anchor="middle" font-size="11" fill="#4a1fb8">contrib.qmd · CLAUDE.md · TODO.md</text>

  <!-- Fletxa 5→GitHub -->
  <path d="M 360 446 L 430 446 L 430 340 L 498 340" fill="none" stroke="#6c757d" stroke-width="1.5" marker-end="url(#arrow)"/>

  <!-- GitHub (verd fosc) -->
  <rect x="498" y="310" width="148" height="60" rx="6" fill="#d1e7dd" stroke="#0a3622" stroke-width="1"/>
  <text x="572" y="334" text-anchor="middle" font-size="13" font-weight="bold" fill="#0a3622" dominant-baseline="central">GitHub</text>
  <text x="572" y="352" text-anchor="middle" font-size="11" fill="#0a3622">Consolidació</text>

  <!-- Nota efecte acumulatiu -->
  <rect x="498" y="390" width="148" height="82" rx="6" fill="none" stroke="#adb5bd" stroke-width="0.5" stroke-dasharray="4 3"/>
  <text x="572" y="410" text-anchor="middle" font-size="11" fill="#6c757d">↗ Efecte acumulatiu</text>
  <text x="572" y="428" text-anchor="middle" font-size="11" fill="#6c757d">Cada tema nou</text>
  <text x="572" y="446" text-anchor="middle" font-size="11" fill="#6c757d">s'aborda amb</text>
  <text x="572" y="464" text-anchor="middle" font-size="11" fill="#6c757d">context més ric</text>

</svg>
